PathFileType	3	(X/Y/Z)	D:\Jess\Healthy\Labelled\HA28\20251211\SRRun01.trc
DataRate	CameraRate	NumFrames	NumMarkers	Units	OrigDataRate	OrigDataStartFrame	OrigNumFrames
250.0	250.0	4	37	mm	250.0	35000	2501
Frame#	Time	C7			T10			CLAV			LSHO			RSHO			LASIS			RASIS			LPSIS			RPSIS			LILCR			RILCR			LGTR			LTHI			LLTHI			LLEP			LMEP			LPSH			LLSH			LDSH			LLMAL			LMMAL			LTOE			L5TH			LHEE			RGTR			RTHI			RLTHI			RLEP			RMEP			RPSH			RLSH			RDSH			RLMAL			RMMAL			RTOE			R5TH			RHEE			
		X1	Y1	Z1	X2	Y2	Z2	X3	Y3	Z3	X4	Y4	Z4	X5	Y5	Z5	X6	Y6	Z6	X7	Y7	Z7	X8	Y8	Z8	X9	Y9	Z9	X10	Y10	Z10	X11	Y11	Z11	X12	Y12	Z12	X13	Y13	Z13	X14	Y14	Z14	X15	Y15	Z15	X16	Y16	Z16	X17	Y17	Z17	X18	Y18	Z18	X19	Y19	Z19	X20	Y20	Z20	X21	Y21	Z21	X22	Y22	Z22	X23	Y23	Z23	X24	Y24	Z24	X25	Y25	Z25	X26	Y26	Z26	X27	Y27	Z27	X28	Y28	Z28	X29	Y29	Z29	X30	Y30	Z30	X31	Y31	Z31	X32	Y32	Z32	X33	Y33	Z33	X34	Y34	Z34	X35	Y35	Z35	X36	Y36	Z36	X37	Y37	Z37	

1	139.996	838.5011119180996	1411.449349248047	-742.5500379959745	823.6266797569822	1163.918320263114	-650.6559565111843	884.6490553571482	1324.45143010595	-862.8109957733615	718.9024115033478	1390.11503688588	-835.5514704084641	995.4717318984317	1396.609512750648	-738.2872682611091	763.1150625769028	925.3270160909977	-859.1405825356469	986.4114690152103	961.3815948126547	-839.0656889544316	839.100704488439	986.9901996374608	-686.0384924775302	879.9685333652556	989.7666682527158	-680.8891247666955	725.0185557809275	999.7976632332782	-807.992725579962	1005.40178347599	1021.811252341378	-769.5297688249394	692.0576099779749	839.9952873043426	-774.272021014204	801.6192778655394	677.5806168535383	-817.7286132348364	734.2236534364935	618.6130958552199	-696.4176183123111	751.4595724826115	491.8343373669417	-641.2778328585151	nan	nan	nan	809.9478225749582	398.5854707537981	-604.6007316532401	724.6147378357006	394.8556043678095	-482.7225890286399	784.2717603266429	291.8685655970953	-434.2125033994304	737.3110834179002	265.0407075769192	-324.7932697611807	nan	nan	nan	759.1324464826358	135.6669083671468	-307.0606597674908	727.4044830718464	165.1122619045814	-273.8992495535181	778.0795196454281	335.7591412542807	-278.5021639878055	1053.314223906063	865.7084801722343	-790.0439686601042	965.7301338662398	745.7661431981343	-907.2786853263249	1005.68638581944	618.7320520897306	-866.7616895393785	984.1770105063341	489.8401643440308	-891.6044591644101	nan	nan	nan	923.9729910057121	432.6975957143181	-943.4786555561345	990.7603799951107	328.9839318710808	-900.4962052739836	926.6151006911616	228.4396293839759	-962.8541915413955	944.9415914735762	122.6408166226082	-929.7546478248909	nan	nan	nan	923.9530576006155	60.77815704315298	-1055.604210551364	953.845385047742	37.20263135208376	-1009.707512006816	892.3319923873978	105.8585064016935	-854.0997958267727	
2	140	839.5101654856014	1408.252370853201	-741.4717154505063	824.8050593959819	1160.306075023818	-650.0567655072019	884.7342809256775	1321.095984164745	-862.545739981356	718.8031948987137	1386.757203685039	-833.9237367445189	996.6239765903053	1392.93729692609	-738.2923942020847	762.8426957623797	922.4707024915537	-859.1692858059898	986.5921716818362	958.2715134222642	-839.480687922646	839.8354703102797	982.6364146740767	-685.7080022271846	880.7604031446976	985.5430105512952	-680.5912826007964	724.8465361830335	996.6817958091232	-807.336780575551	1005.989029147651	1018.086588770309	-769.9728380579138	692.3497543819617	836.5103305356579	-774.3457252059133	799.935134099284	674.3004550808708	-820.0709885626981	733.2336954934096	614.4230644172295	-698.7599609618434	749.5105192839168	488.2095802046094	-645.4770400804274	nan	nan	nan	806.0475794105811	394.2009174652109	-608.6588959780273	723.3827434591838	395.3757825490729	-485.49390827718	781.068249573874	291.6069815308978	-436.1906869395183	735.1931896809785	267.884829972685	-325.8818860739727	nan	nan	nan	754.196592975435	138.5492421358484	-306.8026924323607	723.6420819758223	169.0215459841087	-273.823978728107	778.1490945817181	338.0000464775976	-281.0187745108941	1053.336627618563	862.1415666300635	-791.3357847564904	964.9075719946869	742.9625644247901	-908.7444358259852	1005.163580635466	615.7157634884705	-867.1407159448991	983.4428187687378	486.2053158615037	-890.8989318995702	nan	nan	nan	923.3004744041408	427.9113444018266	-941.5763106428088	989.5725886846596	325.4047733785681	-896.1014552715192	924.6937408501907	223.8134727608247	-954.6349103762129	943.5937725422286	120.022095246661	-918.1922342261784	nan	nan	nan	922.9831991336478	60.87074470240722	-1044.255025247328	953.6134579785719	37.06495192566494	-999.2120607701276	891.3371539549358	101.27254087327	-842.1626535407511	
3	140.004	840.5108184613484	1405.077358004589	-740.3997267575794	825.9749442550374	1156.712671696074	-649.464509752905	884.8204565890544	1317.756908219463	-862.2845973155419	718.6953459648405	1383.418226865916	-832.3074729255851	997.7741023087132	1389.284244299409	-738.2859513393694	762.5800034008362	919.6064366758272	-859.2021377397857	986.7746370231698	955.1878616687237	-839.8854612057	840.5679699433799	978.2915393708199	-685.3725050742937	881.5481124248447	981.3370890975189	-680.2857208636951	724.6774399482531	993.5441449928441	-806.6879245457922	1006.581442564655	1014.391768871491	-770.4152628916868	692.651319178362	833.0090635921292	-774.4212376961109	798.2467038199685	671.0266742438893	-822.3857902816613	732.2483118549304	610.2605310638568	-701.0674584257565	747.5613899774404	484.6068221226038	-649.6134341764697	nan	nan	nan	802.152075260218	389.8545174511506	-612.6604684773037	722.1604390736355	395.8788838758074	-488.2346650464008	777.8856553505135	291.3484850324213	-438.1392680994849	733.1046664477251	270.7162449133538	-326.9551833922681	nan	nan	nan	749.2930301208611	141.4280563888038	-306.5469631712131	719.9148499761354	172.9192170631066	-273.7486215249691	778.2416885759704	340.2149135681806	-283.5150118140178	1053.372196711099	858.6257226132699	-792.620931387071	964.126313977737	740.1593922750326	-910.1850251736084	1004.635644449666	612.7254776840025	-867.4885165524771	982.6859012378607	482.628647465463	-890.2019378180963	nan	nan	nan	922.5833130264757	423.2086225301426	-939.6960786630834	988.3720061245239	321.8999368504606	-891.7274023263769	922.7802921958767	219.2670162176323	-946.5069357779589	942.2438283683045	117.4616262848362	-906.7616088313514	nan	nan	nan	922.0139791540099	60.96273663187598	-1033.025802954909	953.3740701716265	36.93932448706806	-988.8205395046674	890.3416858316963	96.77669259155864	-830.3613152025829	
4	140.008	841.5019293470066	1401.938112130859	-739.3389209589901	827.1376281932805	1153.15240343155	-648.8732426767159	884.9007465399649	1314.429715822671	-862.0299648078975	718.573348616203	1380.1063159971	-830.7007638961325	998.9244069634533	1385.65554826788	-738.2789646691933	762.3406140347585	916.7210795082772	-859.2269863863447	986.9667409037722	952.1452902150513	-840.254810406792	841.2907196502263	973.96095900237	-685.013287449619	882.3226289315683	977.1619171828922	-679.9521036467987	724.5131893738331	990.359466089502	-806.0359061212944	1007.180889432607	1010.748388018911	-770.8381692416712	692.9721770709067	829.4708105104039	-774.4977509473987	796.545683290787	667.7677289504703	-824.6712860741468	731.2602480159645	606.1358684445453	-703.343898149042	745.6006056393112	481.0352085883441	-653.6968190549588	nan	nan	nan	798.2559099246849	385.5707683236646	-616.6269009606191	720.9492021602773	396.3413534472165	-490.9836614654586	774.7397054416274	291.0883855831944	-440.1017481062863	731.0754985545969	273.5173709076664	-328.070033645002	nan	nan	nan	744.4466804666648	144.294938502528	-306.3733879297877	716.2510758506304	176.7883052792477	-273.7498019428723	778.3836555805358	342.3684593841845	-286.037713379236	1053.432886390541	855.1926137195364	-793.8661955945689	963.4094912751789	737.3488469434601	-911.5459497497291	1004.095905721851	609.775401992846	-867.7587049729376	981.8834794295429	479.148794898161	-889.487038065824	nan	nan	nan	921.7832754003983	418.6443786727132	-937.8087202527475	987.1434930218491	318.5270519694548	-887.3476288248478	920.879423098425	214.8685130623445	-938.4801273026198	940.8910968107721	115.0181104310576	-895.4992190243346	nan	nan	nan	921.0486713904533	61.05018737169361	-1021.937551199658	953.1214424865886	36.83598115598287	-978.53610879312	889.3439562112949	92.46362856067319	-818.7328501268912	
